<svg width="17" height="20" viewBox="0 0 17 20" fill="none" xmlns="http://www.w3.org/2000/svg">
<path d="M0 3.5C0 1.567 1.567 0 3.5 0C5.433 0 7 1.567 7 3.5C7 5.08957 5.94034 6.43164 4.48889 6.85835C5.17675 9.1112 7.272 10.75 9.75 10.75H10.0805C10.4239 9.1774 11.8244 8 13.5 8C15.433 8 17 9.567 17 11.5C17 13.433 15.433 15 13.5 15C11.8244 15 10.4239 13.8226 10.0805 12.25H9.75C7.519 12.25 5.53183 11.2063 4.25 9.5806V13.0805C5.82259 13.4239 7 14.8244 7 16.5C7 18.433 5.433 20 3.5 20C1.567 20 0 18.433 0 16.5C0 14.8244 1.17741 13.4239 2.75 13.0805V6.91946C1.17741 6.57612 0 5.17556 0 3.5Z" fill="#212121"/>
</svg>
